<svg viewBox="0 0 93 93" fill="none" xmlns="http://www.w3.org/2000/svg">
<circle cx="46.5" cy="46.5" r="46.5" fill="url(#paint0_linear_1372_24)"/>
<path fill-rule="evenodd" clip-rule="evenodd" d="M46.0007 31.1798C46.2366 31.1798 46.7592 31.7933 46.9636 31.9532C48.2049 32.9249 48.3356 33.2173 50.1734 34.1563C51.0055 34.5815 51.7132 34.8986 52.6637 35.1965C53.5746 35.4821 54.5308 35.6766 55.5982 35.8529C56.8477 36.0593 58.8037 35.6251 58.8651 37.9274L58.86 40.6748C58.8647 41.0653 58.9295 41.1224 58.9342 41.5129L58.7938 45.0312C58.6226 48.5391 57.8578 52.2237 56.1678 55.0733L55.0805 56.704C54.1537 57.9425 53.1493 58.8887 51.9361 59.8178C50.6755 60.7831 49.8559 61.1727 48.5445 61.835C48.1809 62.0187 46.3257 62.8589 46.0007 62.8589C45.2663 62.8589 42.131 61.1986 41.1725 60.5842L38.2112 58.1974L37.3515 57.2481C36.8116 56.6688 36.3043 55.8695 35.8758 55.1708C34.5244 52.9669 33.5093 49.3443 33.3425 46.7917C33.3067 46.2438 33.2131 45.7824 33.2092 45.1701L33.1395 43.4133C33.1429 42.8138 33.0708 42.3291 33.0682 41.6547L33.1386 39.8986C33.1386 39.2885 33.1358 38.678 33.1362 38.068C33.1367 37.4539 33.2408 36.9843 33.5329 36.6454C34.2806 35.7777 34.9782 36.0682 36.3445 35.8633C39.685 35.3625 41.8886 34.4124 44.5179 32.4063C44.8306 32.1676 45.7917 31.1798 46.0006 31.1798L46.0007 31.1798ZM31.0064 39.1954C31.0064 43.769 30.9119 46.7298 31.9965 51.1911C32.6993 54.0825 33.7771 55.9664 35.3886 58.2C36.5907 59.8662 39.1246 61.9839 40.9793 62.9614C41.4789 63.2248 41.9346 63.4829 42.4694 63.7584C43.5004 64.2897 45.0839 65.0001 46.2758 65.0001C46.7573 65.0001 49.1282 63.9622 49.5783 63.7355C50.6132 63.2144 51.5419 62.6765 52.4661 62.047C56.8358 59.0705 59.5395 54.5401 60.4259 49.3013C61.0687 45.502 60.9949 43.0465 60.9949 39.1954C60.9949 38.942 61.0045 38.6706 60.9972 38.4197C60.9788 37.7915 60.8823 36.8731 60.696 36.3369C60.3033 35.2069 59.3956 34.422 58.3226 34.0522C57.4765 33.7607 55.2548 33.8091 53.0935 33.0696L50.9058 32.1419C49.8971 31.588 49.0245 30.9198 48.1531 30.1747C47.264 29.4144 47.1377 29.0001 45.7943 29.0001C44.7065 29.0001 43.6212 30.5982 42.0848 31.5361C41.7766 31.7242 41.4734 31.9256 41.1398 32.117L38.9593 33.052C36.0911 34.03 34.2722 33.4834 32.6592 34.5569C31.3016 35.4605 31.0869 36.8207 31.0061 38.3513C30.9921 38.6152 31.0064 38.9262 31.0064 39.1954L31.0064 39.1954Z" fill="white"/>
<path fill-rule="evenodd" clip-rule="evenodd" d="M46.3447 53.8204C45.0837 53.8204 44.2583 53.7395 43.134 53.165C42.3603 52.7695 41.8503 52.4257 41.2718 51.8343C40.2424 50.782 39.329 48.9829 39.329 47.3516C39.329 45.2217 39.868 43.6092 41.3061 42.1305C43.8512 39.5135 48.1411 39.5195 50.7297 42.1658C53.3184 44.812 53.3242 49.1974 50.7642 51.7993C50.1749 52.3982 49.6985 52.7376 48.913 53.1412C48.287 53.4629 47.2487 53.8204 46.3447 53.8204V53.8204ZM37.1968 47C37.1968 51.9262 41.1819 56 46.0007 56C53.6841 56 57.8175 46.3809 52.2082 40.6543C49.5092 37.8988 45.0167 37.1139 41.6635 39.1912L40.3594 40.108C38.4755 41.5643 37.1968 44.4476 37.1968 47L37.1968 47Z" fill="white"/>
<path fill-rule="evenodd" clip-rule="evenodd" d="M44.4188 48.3359C44.1741 47.9624 43.2255 46.9297 42.6305 46.9297C41.9987 46.9297 40.8259 47.7302 42.2005 49.127C42.6882 49.6226 43.8035 50.9375 44.35 50.9375C45.0051 50.9375 45.0619 50.7373 45.5365 50.252L49.801 45.8927C50.144 45.5444 50.3936 45.3537 50.279 44.741C50.1868 44.2483 49.7938 43.9062 49.2335 43.9062C48.6057 43.9062 48.2171 44.4882 47.875 44.8379L44.4188 48.3359H44.4188Z" fill="white"/>
<defs>
<linearGradient id="paint0_linear_1372_24" x1="25.2429" y1="-1.9373e-06" x2="85.0286" y2="93" gradientUnits="userSpaceOnUse">
<stop stop-color="#32426E"/>
<stop offset="1" stop-color="#5D2A8D"/>
</linearGradient>
</defs>
</svg>
