<svg viewBox="0 0 1200 1200" fill="none" xmlns="http://www.w3.org/2000/svg">
<path d="M864.68 409.357C882.979 427.656 882.979 457.318 864.68 475.608L550.414 789.883C532.115 808.173 502.462 808.173 484.163 789.883L334.56 640.271C316.261 621.981 316.261 592.319 334.56 574.029C352.85 555.73 382.512 555.73 400.802 574.029L517.284 690.511L798.429 409.357C816.728 391.067 846.391 391.067 864.68 409.357ZM1199.24 599.62C1199.24 931.06 931.014 1199.24 599.62 1199.24C268.18 1199.24 0 931.014 0 599.62C0 268.18 268.226 0 599.62 0C931.06 0 1199.24 268.226 1199.24 599.62ZM1105.55 599.62C1105.55 319.966 879.237 93.6906 599.62 93.6906C319.966 93.6906 93.6906 320.003 93.6906 599.62C93.6906 879.274 320.003 1105.55 599.62 1105.55C879.274 1105.55 1105.55 879.237 1105.55 599.62Z" fill="url(#paint0_linear_632_109)"/>
<defs>
<linearGradient id="paint0_linear_632_109" x1="599.62" y1="0" x2="599.62" y2="1199.24" gradientUnits="userSpaceOnUse">
<stop stop-color="#8EA7E1"/>
<stop offset="1" stop-color="#7B8AB4" stop-opacity="0"/>
</linearGradient>
</defs>
</svg>
