<svg viewBox="0 0 93 93" fill="none" xmlns="http://www.w3.org/2000/svg">
<circle cx="46.5" cy="46.5" r="46.5" fill="url(#paint0_linear_1372_21)"/>
<g clip-path="url(#clip0_1372_21)">
<path d="M50.5242 43.2844L44.5142 48.961L41.6298 45.9936C41.3101 45.6644 40.7836 45.6569 40.4547 45.9766C40.1255 46.2967 40.118 46.8229 40.4377 47.1521L43.8972 50.7034C44.2185 51.0267 44.7379 51.0378 45.0727 50.7281L51.6831 44.4931C51.8437 44.3417 51.9374 44.1326 51.9436 43.9122C51.9498 43.6918 51.8681 43.4778 51.7163 43.3176C51.3946 42.9832 50.8642 42.9685 50.5242 43.2844V43.2844Z" fill="white"/>
<path d="M46.0645 34.5483C39.1958 34.5483 33.6107 40.1334 33.6107 47.002C33.6107 53.8711 39.1958 59.4561 46.0645 59.4561C52.9335 59.4561 58.5186 53.8711 58.5186 47.002C58.5186 40.1334 52.9335 34.5483 46.0645 34.5483V34.5483ZM46.0645 57.7889C40.1128 57.7889 35.2779 52.9456 35.2779 47.002C35.2779 41.0585 40.1128 36.2155 46.0645 36.2155C52.0221 36.2155 56.8514 41.0448 56.8514 47.002C56.8514 52.9593 52.0221 57.7889 46.0645 57.7889V57.7889Z" fill="white"/>
<path d="M63.2033 42.4172L63.4784 37.4739C63.4976 37.1421 63.3172 36.8305 63.0199 36.682L58.6185 34.4564L56.3929 30.055C56.2415 29.7603 55.9318 29.5808 55.601 29.5965L50.6492 29.8635L46.5229 27.1374C46.2448 26.954 45.8844 26.954 45.606 27.1374L41.4797 29.8635L36.5367 29.5883C36.2046 29.5688 35.8933 29.7492 35.7448 30.0468L33.5188 34.4483L29.1177 36.6739C28.8227 36.825 28.6436 37.1346 28.6593 37.4658L28.9341 42.4091L26.2083 46.5354C26.025 46.8134 26.025 47.1739 26.2083 47.4523L28.9259 51.5867L28.6508 56.53C28.6316 56.8618 28.8116 57.1735 29.1093 57.3219L33.5107 59.5476L35.7363 63.949C35.8874 64.244 36.1971 64.4231 36.5283 64.4075L41.4715 64.1323L45.5978 66.8581C45.8743 67.0473 46.2383 67.0473 46.5148 66.8581L50.6411 64.1323L55.5843 64.4075C55.9162 64.4267 56.2274 64.2463 56.3763 63.949L58.6019 59.5476L63.0033 57.3219C63.298 57.1705 63.4774 56.8612 63.4618 56.53L63.1867 51.5867L65.9124 47.4605C66.0958 47.1824 66.0958 46.8216 65.9124 46.5435L63.2033 42.4172ZM61.6526 50.9033C61.5511 51.0524 61.5038 51.2318 61.5195 51.4119L61.7777 56.0882L57.6182 58.1887C57.4596 58.2682 57.331 58.3971 57.2515 58.5557L55.1506 62.7152L50.4743 62.457C50.2953 62.4505 50.1184 62.4967 49.9657 62.5902L46.0644 65.1662L42.1635 62.5902C42.028 62.4987 41.8685 62.4492 41.705 62.4485H41.6633L36.9867 62.7071L34.8861 58.5473C34.8067 58.3887 34.6781 58.2601 34.5192 58.1806L30.3512 56.0882L30.6097 51.4119C30.6162 51.2328 30.5697 51.056 30.4762 50.9033L27.9006 47.002L30.4762 43.1007C30.5782 42.9519 30.6254 42.7721 30.6097 42.5924L30.3512 37.9158L34.511 35.8152C34.6696 35.7358 34.7982 35.6071 34.8777 35.4486L36.9783 31.2887L41.6549 31.5473C41.8336 31.5535 42.0104 31.5072 42.1635 31.4138L46.0644 28.8381L49.9657 31.4138C50.1149 31.5157 50.2946 31.5629 50.4743 31.5473L55.1506 31.2887L57.2515 35.4486C57.331 35.6071 57.4596 35.7358 57.6182 35.8152L61.7777 37.9158L61.5195 42.5924C61.513 42.7712 61.5595 42.948 61.6526 43.1007L64.2287 47.002L61.6526 50.9033Z" fill="white"/>
</g>
<defs>
<linearGradient id="paint0_linear_1372_21" x1="25.2429" y1="-1.9373e-06" x2="85.0286" y2="93" gradientUnits="userSpaceOnUse">
<stop stop-color="#32426E"/>
<stop offset="1" stop-color="#5D2A8D"/>
</linearGradient>
<clipPath id="clip0_1372_21">
<rect width="40" height="40" fill="white" transform="translate(26 27)"/>
</clipPath>
</defs>
</svg>
