<svg viewBox="0 0 93 93" fill="none" xmlns="http://www.w3.org/2000/svg">
<circle cx="46.5" cy="46.5" r="46.5" fill="url(#paint0_linear_1372_22)"/>
<g clip-path="url(#clip0_1372_22)">
<path d="M57.0977 40.8211C56.9598 40.3969 56.5929 40.0878 56.1517 40.0237L50.6902 39.2302L48.2476 34.2812C48.0501 33.8811 47.6427 33.6278 47.1966 33.6278C46.7504 33.6278 46.3433 33.8811 46.1458 34.2812L43.7032 39.2302L38.2418 40.0237C37.8002 40.0878 37.4337 40.3969 37.2957 40.8211C37.1578 41.2456 37.2728 41.7113 37.592 42.0226L41.5441 45.8751L40.6112 51.3146C40.5358 51.7544 40.7164 52.1987 41.0775 52.4609C41.4382 52.723 41.9167 52.7575 42.3116 52.55L47.1966 49.9819L52.0815 52.55C52.253 52.6403 52.4404 52.6849 52.6269 52.6849C52.6284 52.6849 52.6299 52.6849 52.6314 52.6849C53.2772 52.683 53.8003 52.159 53.8003 51.513C53.8003 51.4229 53.7902 51.3354 53.771 51.2511L52.849 45.8751L56.8011 42.0226C57.1206 41.7113 57.2353 41.2456 57.0977 40.8211ZM50.7717 44.6267C50.4955 44.8958 50.3695 45.2837 50.4348 45.664L51.0705 49.3706L47.7419 47.6205C47.571 47.5307 47.3839 47.4859 47.1966 47.4859C47.0095 47.4859 46.8221 47.5307 46.6512 47.6205L43.3226 49.3706L43.9583 45.664C44.0236 45.2837 43.8976 44.8958 43.6214 44.6267L40.9285 42.0018L44.6499 41.4611C45.0316 41.4055 45.3615 41.166 45.5324 40.8199L47.1966 37.4477L48.861 40.8199C49.0319 41.166 49.3618 41.4055 49.7436 41.4611L53.4649 42.0018L50.7717 44.6267Z" fill="white"/>
<path d="M47.1966 26.9219C38.3111 26.9219 31.0699 34.0966 30.9634 42.9574L29.0307 48.5943C28.5 50.1427 28.5348 51.5057 29.1262 52.3339C29.4808 52.8301 30.028 53.1146 30.628 53.1146H30.9622V55.0808C30.9622 57.4572 32.8958 59.3905 35.2722 59.3905C36.3565 59.3905 37.2384 60.2728 37.2384 61.3568V62.6119C37.2384 64.9884 39.1717 66.922 41.5481 66.922H50.3348C52.7112 66.922 54.6448 64.9884 54.6448 62.6119V57.582C57.1338 56.2957 59.2481 54.389 60.7907 52.0318C62.518 49.3923 63.4311 46.3235 63.4311 43.156C63.4311 34.2046 56.1484 26.9219 47.1966 26.9219ZM52.9837 55.7852C52.5674 55.9762 52.3007 56.3925 52.3007 56.8502V62.6119C52.3007 63.6962 51.4188 64.5782 50.3348 64.5782H41.5481C40.4641 64.5782 39.5822 63.6962 39.5822 62.6119V61.3568C39.5822 58.9803 37.6486 57.0471 35.2722 57.0471C34.1879 57.0471 33.3059 56.1648 33.3059 55.0808V51.9427C33.3059 51.2957 32.7813 50.7708 32.134 50.7708H31.0064C30.9866 50.5093 31.0147 50.035 31.2478 49.3545L33.2428 43.5363C33.2846 43.4139 33.3059 43.2854 33.3059 43.1563C33.3059 35.497 39.5373 29.2656 47.1966 29.2656C54.856 29.2656 61.0874 35.497 61.0874 43.1563C61.0874 48.568 57.9065 53.5253 52.9837 55.7852Z" fill="white"/>
</g>
<defs>
<linearGradient id="paint0_linear_1372_22" x1="25.2429" y1="-1.9373e-06" x2="85.0286" y2="93" gradientUnits="userSpaceOnUse">
<stop stop-color="#32426E"/>
<stop offset="1" stop-color="#5D2A8D"/>
</linearGradient>
<clipPath id="clip0_1372_22">
<rect width="40" height="40" fill="white" transform="translate(26 27)"/>
</clipPath>
</defs>
</svg>
