<svg width="55" height="55" viewBox="0 0 55 55" fill="none" xmlns="http://www.w3.org/2000/svg">
<path d="M27.5069 0H27.4931C12.3303 0 0 12.3337 0 27.5C0 33.5156 1.93875 39.0913 5.23531 43.6184L1.80813 53.8347L12.3784 50.4556C16.7269 53.3363 21.9141 55 27.5069 55C42.6697 55 55 42.6628 55 27.5C55 12.3372 42.6697 0 27.5069 0Z" fill="#4CAF50"/>
<path d="M43.5085 38.8333C42.845 40.7067 40.2119 42.2605 38.1116 42.7142C36.6747 43.0201 34.7978 43.2642 28.4797 40.6448C20.3981 37.2967 15.1938 29.0845 14.7881 28.5517C14.3997 28.0189 11.5225 24.2033 11.5225 20.257C11.5225 16.3108 13.5266 14.3892 14.3344 13.5642C14.9978 12.887 16.0944 12.5776 17.1463 12.5776C17.4866 12.5776 17.7925 12.5948 18.0675 12.6086C18.8753 12.6429 19.281 12.6911 19.8138 13.9664C20.4772 15.5648 22.0928 19.5111 22.2853 19.9167C22.4813 20.3223 22.6772 20.8723 22.4022 21.4051C22.1444 21.9551 21.9175 22.1992 21.5119 22.6667C21.1063 23.1342 20.7213 23.4917 20.3156 23.9936C19.9444 24.4301 19.525 24.8976 19.9925 25.7055C20.46 26.4961 22.0756 29.1326 24.4544 31.2501C27.5241 33.983 30.0128 34.8561 30.9031 35.2273C31.5666 35.5023 32.3572 35.437 32.8419 34.9214C33.4572 34.258 34.2169 33.158 34.9903 32.0751C35.5403 31.2983 36.2347 31.202 36.9635 31.477C37.706 31.7348 41.635 33.677 42.4428 34.0792C43.2506 34.4848 43.7835 34.6773 43.9794 35.0176C44.1719 35.358 44.1719 36.9564 43.5085 38.8333Z" fill="#FAFAFA"/>
</svg>
